<?xml version="1.0" encoding="iso-8859-1"?>
<!-- Generator: Adobe Illustrator 19.0.0, SVG Export Plug-In . SVG Version: 6.00 Build 0)  -->
<svg version="1.1" id="Capa_1" xmlns="http://www.w3.org/2000/svg" xmlns:xlink="http://www.w3.org/1999/xlink" x="0px" y="0px"
	 viewBox="0 0 512 512" style="enable-background:new 0 0 512 512;" xml:space="preserve">
<path style="fill:#58BFFF;" d="M180.385,376.721l-117.24,117.24c-10.73,10.73-28.126,10.73-38.856,0l0,0
	c-10.73-10.73-10.73-28.126,0-38.856l117.24-117.24L180.385,376.721z"/>
<path style="fill:#FFCDAC;" d="M458.101,237.005v8.02c0,17.718-14.363,32.081-32.081,32.081l0,0l0,0
	c-17.718,0-32.081-14.363-32.081-32.081v-8.02c0-17.718,14.363-32.081,32.081-32.081l0,0
	C443.738,204.924,458.101,219.287,458.101,237.005z"/>
<path style="fill:#FFBC53;" d="M447.654,277.106h-43.266c-30.015,0-54.346,24.332-54.346,54.346v20.134H502v-20.134
	C502,301.437,477.668,277.106,447.654,277.106z"/>
<path style="fill:#FFCDAC;" d="M53.899,237.005v8.02c0,17.718,14.363,32.081,32.081,32.081l0,0l0,0
	c17.718,0,32.081-14.363,32.081-32.081v-8.02c0-17.718-14.363-32.081-32.081-32.081l0,0
	C68.262,204.924,53.899,219.287,53.899,237.005z"/>
<path style="fill:#95E540;" d="M64.346,277.106h43.266c30.015,0,54.346,24.332,54.346,54.346v20.134H10v-20.134
	C10,301.437,34.332,277.106,64.346,277.106z"/>
<circle style="fill:#A5DDFF;" cx="256" cy="254.28" r="138"/>
<circle style="fill:#FFFFFF;" cx="256" cy="254.28" r="97.97"/>
<path style="fill:#FFCDAC;" d="M287.073,241.727v7.768c0,17.161-13.912,31.073-31.073,31.073l0,0l0,0
	c-17.161,0-31.073-13.912-31.073-31.073v-7.768c0-17.161,13.912-31.073,31.073-31.073l0,0
	C273.161,210.653,287.073,224.565,287.073,241.727z"/>
<path style="fill:#FE6663;" d="M256,280.568L256,280.568c-30.333,0-56.247,18.843-66.726,45.454
	c17.497,16.28,40.942,26.253,66.726,26.253c25.785,0,49.229-9.973,66.726-26.253C312.247,299.411,286.333,280.568,256,280.568z"/>
<path d="M460.934,268.491c4.524-6.708,7.168-14.784,7.168-23.466v-8.021c0-23.203-18.878-42.081-42.081-42.081
	c-11.577,0-22.077,4.701-29.693,12.293C376.622,148.609,321.163,106.275,256,106.275s-120.622,42.333-140.328,100.941
	c-7.616-7.592-18.115-12.293-29.693-12.293c-23.203,0-42.081,18.878-42.081,42.081v8.021c0,8.682,2.644,16.758,7.168,23.466
	C21.937,274.629,0,300.524,0,331.452v20.134c0,5.522,4.478,10,10,10h52c5.522,0,10-4.478,10-10s-4.478-10-10-10H20v-10.134
	c0-24.453,19.894-44.347,44.347-44.347h47.329c3.838,16.881,10.565,32.677,19.641,46.831L17.218,448.035
	c-14.61,14.611-14.61,38.386,0.001,52.998c7.306,7.306,16.901,10.958,26.498,10.958s19.194-3.653,26.5-10.958l62.903-62.904
	c3.905-3.905,3.905-10.237,0-14.143c-3.906-3.904-10.236-3.904-14.143,0L56.075,486.89c-6.815,6.814-17.901,6.813-24.715,0.001
	c-6.813-6.814-6.813-17.901,0-24.715L143.367,350.17c27.167,31.862,67.578,52.105,112.633,52.105
	c70.328,0,129.35-49.31,144.324-115.17h47.329c24.453,0,44.347,19.894,44.347,44.347v10.134h-94c-5.522,0-10,4.478-10,10
	s4.478,10,10,10h104c5.522,0,10-4.478,10-10v-20.134C512,300.524,490.063,274.629,460.934,268.491z M403.939,237.005
	c0-12.176,9.905-22.081,22.081-22.081s22.081,9.905,22.081,22.081v8.021c0,12.175-9.905,22.08-22.081,22.08
	s-22.081-9.905-22.081-22.08V237.005z M63.898,237.005c0-12.176,9.905-22.081,22.081-22.081s22.081,9.905,22.081,22.081v8.021
	c0,12.175-9.905,22.08-22.081,22.08s-22.081-9.905-22.081-22.08C63.898,245.026,63.898,237.005,63.898,237.005z M256,382.275
	c-70.579,0-128-57.421-128-128s57.421-128,128-128s128,57.421,128,128S326.579,382.275,256,382.275z"/>
<path d="M256,146.275c-59.552,0-108,48.448-108,108c0,30.91,13.056,58.825,33.938,78.53c0.357,0.386,0.74,0.75,1.16,1.08
	c19.226,17.621,44.829,28.39,72.902,28.39s53.676-10.77,72.902-28.39c0.42-0.329,0.803-0.694,1.16-1.08
	C350.944,313.1,364,285.185,364,254.275C364,194.724,315.552,146.275,256,146.275z M201.503,323.321
	c10.625-20.104,31.331-32.753,54.497-32.753s43.872,12.649,54.497,32.753c-14.998,11.863-33.934,18.954-54.497,18.954
	S216.501,335.184,201.503,323.321z M234.927,249.495v-7.769c0-11.62,9.453-21.073,21.073-21.073s21.073,9.453,21.073,21.073v7.769
	c0,11.62-9.453,21.073-21.073,21.073S234.927,261.115,234.927,249.495z M325.125,308.674c-9.161-14.617-22.57-25.764-38.264-32.12
	c6.349-7.233,10.212-16.7,10.212-27.058v-7.769c0-22.647-18.426-41.073-41.073-41.073s-41.073,18.426-41.073,41.073v7.769
	c0,10.358,3.862,19.825,10.212,27.058c-15.694,6.357-29.102,17.503-38.264,32.12C175.059,293.692,168,274.793,168,254.275
	c0-48.523,39.477-88,88-88s88,39.477,88,88C344,274.793,336.941,293.692,325.125,308.674z"/>
<path d="M152.8,394.309c-2.63,0-5.21,1.07-7.07,2.93c-1.859,1.86-2.93,4.44-2.93,7.07s1.07,5.21,2.93,7.07
	c1.86,1.859,4.44,2.93,7.07,2.93s5.21-1.07,7.07-2.93c1.859-1.86,2.93-4.44,2.93-7.07s-1.07-5.21-2.93-7.07
	C158.01,395.379,155.43,394.309,152.8,394.309z"/>
<path d="M256.203,54.033c5.522,0,10-4.478,10-10V10.009c0-5.522-4.478-10-10-10s-10,4.478-10,10v34.024
	C246.203,49.556,250.681,54.033,256.203,54.033z"/>
<path d="M256.2,87.009c2.64,0,5.21-1.07,7.069-2.931c1.86-1.859,2.931-4.439,2.931-7.069s-1.07-5.21-2.931-7.07
	c-1.859-1.86-4.43-2.93-7.069-2.93c-2.631,0-5.21,1.069-7.07,2.93s-2.93,4.44-2.93,7.07s1.069,5.21,2.93,7.069
	C250.99,85.938,253.569,87.009,256.2,87.009z"/>
<path d="M316.332,73.883c2.56,0,5.118-0.977,7.071-2.929l17.576-17.576c3.905-3.905,3.905-10.237,0-14.143
	c-3.906-3.904-10.236-3.904-14.143,0L309.26,56.811c-3.905,3.905-3.905,10.237,0,14.143
	C311.214,72.906,313.772,73.883,316.332,73.883z"/>
<path d="M188.766,71.075c1.953,1.952,4.512,2.929,7.071,2.929s5.118-0.977,7.071-2.929c3.905-3.905,3.905-10.237,0-14.143
	l-17.745-17.745c-3.906-3.904-10.236-3.904-14.143,0c-3.905,3.905-3.905,10.237,0,14.143L188.766,71.075z"/>
<g>
</g>
<g>
</g>
<g>
</g>
<g>
</g>
<g>
</g>
<g>
</g>
<g>
</g>
<g>
</g>
<g>
</g>
<g>
</g>
<g>
</g>
<g>
</g>
<g>
</g>
<g>
</g>
<g>
</g>
</svg>
